# xmcd
#
# Track frame offsets:
#	150
#	16641
#	32185
#	42738
#	57893
#	71761
#	86967
#	100130
#	115302
#	130695
#
# Disc length: 1879
#
# Revision: 1
# Processed by: cddbd v1.5.1PL0 Copyright (c) Steve Scherf et al.
# Submitted via: CDex 1.51
# Normalized: r0:TRMNUM
#
DISCID=8707550a
DTITLE=Billie Holiday - Midnight Blues
DYEAR=2000
DGENRE=Blues
TTITLE0=Stormy Weather
TTITLE1=Ghost of a Chance
TTITLE2=Lover come back to me
TTITLE3=Willow Weep for Me
TTITLE4=The Same old Story
TTITLE5=Easy to Remember
TTITLE6=My Man
TTITLE7=Lover Man
TTITLE8=Don't Explain
TTITLE9=What a Little Moonlight Can Do
EXTD=YEAR: 2000
EXTT0=
EXTT1=
EXTT2=
EXTT3=
EXTT4=
EXTT5=
EXTT6=
EXTT7=
EXTT8=
EXTT9=
PLAYORDER=
